<?xml version="1.0" encoding="utf-8"?>
<!-- Generator: Adobe Illustrator 23.0.3, SVG Export Plug-In . SVG Version: 6.00 Build 0)  -->
<svg version="1.1" id="Layer_1" xmlns="http://www.w3.org/2000/svg" xmlns:xlink="http://www.w3.org/1999/xlink" x="0px" y="0px"
	 viewBox="0 0 200 200" style="enable-background:new 0 0 200 200;" xml:space="preserve">
<style type="text/css">
	.st0{fill:#FFFFFF;filter:url(#Adobe_OpacityMaskFilter);}
	.st1{mask:url(#mask0_1_);}
	.st2{fill:#FFCF6B;}
	.st3{fill:#D4E8DD;}
	.st4{fill-rule:evenodd;clip-rule:evenodd;fill:#F26E6F;}
	.st5{fill-rule:evenodd;clip-rule:evenodd;fill:#253863;}
	.st6{fill:#FFABAF;}
	.st7{fill:#F26E6F;}
	.st8{fill-rule:evenodd;clip-rule:evenodd;fill:#FFCF6B;}
</style>
<defs>
	<filter id="Adobe_OpacityMaskFilter" filterUnits="userSpaceOnUse" x="8.4" y="4" width="183.1" height="192.1">
		<feColorMatrix  type="matrix" values="1 0 0 0 0  0 1 0 0 0  0 0 1 0 0  0 0 0 1 0"/>
	</filter>
</defs>
<mask maskUnits="userSpaceOnUse" x="8.4" y="4" width="183.1" height="192.1" id="mask0_1_">
	<rect x="1" y="1.5" class="st0" width="198" height="198"/>
</mask>
<g class="st1">
	<rect x="107.9" y="15.8" class="st2" width="63.4" height="132.2"/>
	<rect x="24.8" y="15.8" class="st3" width="83.7" height="173.7"/>
	<path class="st4" d="M171.3,15.8H24.8L15.4,4h166.3L171.3,15.8z"/>
	<path class="st4" d="M108.4,185.1l-89.1,0.5L13.9,196h94.5V185.1z"/>
	<path class="st5" d="M61.4,75.7H38.1V45.1c0,0-0.5-8.9,11.9-8.9s11.9,8.9,11.9,8.9v30.7H61.4z"/>
	<path class="st5" d="M96,75.7H72.3V45.1c0,0-0.5-8.9,11.9-8.9S96,45.1,96,45.1V75.7z"/>
	<path class="st5" d="M59.4,180.2H35.7v-43.6c0,0-0.5-12.4,11.9-12.4s11.9,12.4,11.9,12.4L59.4,180.2L59.4,180.2z"/>
	<path class="st5" d="M93.1,180.2H69.3v-43.6c0,0-0.5-12.4,11.9-12.4c12.4,0,11.9,12.4,11.9,12.4V180.2z"/>
	<path class="st5" d="M158.4,147.5h-38.1v-37.6c0,0-0.5-20.3,18.8-20.3s19.3,20.3,19.3,20.3V147.5L158.4,147.5z"/>
	<rect x="107.9" y="162.4" class="st6" width="62.9" height="7.4"/>
	<rect x="107.9" y="147.5" class="st6" width="62.9" height="7.4"/>
	<rect x="107.9" y="170.3" class="st7" width="63.4" height="7.4"/>
	<rect x="107.9" y="155.4" class="st7" width="63.4" height="7.4"/>
	<rect x="108.4" y="177.2" class="st6" width="62.9" height="8.4"/>
	<path class="st4" d="M191.6,196h-83.7v-10.9l77.7,0.5L191.6,196z"/>
	<rect x="170.3" y="122.8" class="st7" width="12.9" height="73.3"/>
	<path class="st4" d="M48.5,94.1l-12.9,26.2c0,0,2,5.9,14.9,5.9c14.4,0,15.3-5.9,15.3-5.9V94.1C66.3,94.1,48.5,94.1,48.5,94.1z"/>
	<path class="st4" d="M84.2,94.1l12.4,26.7c0,0,2,5.9,13.9,5.9c13.9,0,13.4-6.4,13.4-6.4l-16.3-26.2H84.2z"/>
	<path class="st8" d="M66.8,94.1v26.2c0,0-0.5,6.9,15.8,6.9c15.3-0.5,14.9-6.4,14.9-6.4L85.2,94.1H66.8z"/>
	<path class="st8" d="M48.5,94.1l-24.3-0.5L8.4,120.3c0,0-0.5,6.4,13.9,6.4c12.4,0,13.9-6.4,13.9-6.4L48.5,94.1z"/>
</g>
</svg>
