<?xml version="1.0" encoding="utf-8"?>
<!-- Generator: Adobe Illustrator 23.0.3, SVG Export Plug-In . SVG Version: 6.00 Build 0)  -->
<svg version="1.1" id="Layer_1" xmlns="http://www.w3.org/2000/svg" xmlns:xlink="http://www.w3.org/1999/xlink" x="0px" y="0px"
	 viewBox="0 0 100 100" style="enable-background:new 0 0 100 100;" xml:space="preserve">
<style type="text/css">
	.st0{fill:none;stroke:#F26E60;stroke-width:3;stroke-miterlimit:10;}
	.st1{fill:none;stroke:#F26E60;stroke-width:2;stroke-miterlimit:10;}
</style>
<g>
	<path class="st0" d="M41.64,41.43l1.99-2.2c1.64-1.82,2.48-4.17,2.36-6.61c-0.12-2.45-1.19-4.7-3.01-6.34l-3.37-3.04
		c-1.69-1.53-3.87-2.37-6.15-2.37c-2.59,0-5.07,1.1-6.81,3.02l-1.99,2.21c-0.25,0.28-0.5,0.59-0.73,0.93l-0.09,0.1
		c-1.88,1.61-3.49,5.53-2.56,10.33c4.29,22.32,23.09,39.33,45.73,41.36c2.97,0.27,5.77-0.34,7.89-1.65c0.85-0.49,1.6-1.09,2.24-1.81
		l2-2.21c3.39-3.75,3.1-9.56-0.65-12.95l-3.37-3.05c-1.69-1.53-3.87-2.37-6.15-2.37c-2.59,0-5.07,1.1-6.8,3.02l-2,2.21
		c-0.85,0.94-1.49,2.03-1.89,3.23l-0.18,0.53l-0.52-0.21c-8.9-3.51-16.15-10.17-20.42-18.74l-0.28-0.57l0.61-0.18
		C39.09,43.58,40.52,42.67,41.64,41.43z"/>
</g>
<circle class="st1" cx="50" cy="50" r="49"/>
</svg>
