<?xml version="1.0" encoding="utf-8"?>
<!-- Generator: Adobe Illustrator 23.0.3, SVG Export Plug-In . SVG Version: 6.00 Build 0)  -->
<svg version="1.1" id="Layer_1" xmlns="http://www.w3.org/2000/svg" xmlns:xlink="http://www.w3.org/1999/xlink" x="0px" y="0px"
	 viewBox="0 0 100 100" style="enable-background:new 0 0 100 100;" xml:space="preserve">
<style type="text/css">
	.st0{fill:none;stroke:#B0DDCC;stroke-width:3;stroke-miterlimit:10;}
	.st1{fill:none;stroke:#B0DDCC;stroke-width:2;stroke-miterlimit:10;}
</style>
<g>
	<g>
		<path class="st0" d="M68.63,75.01c1.02,0,1.85-0.83,1.85-1.85V53.41h4.86h0.01c1.77,0,3.21-1.44,3.21-3.21
			c0-1.01-0.47-1.92-1.2-2.51l-6.28-5.45v-9.06c0-1.06-0.86-1.92-1.92-1.92h-3.97c-1.06,0-1.92,0.86-1.92,1.92v2.28L52.1,25.77
			c-1.21-1.05-3-1.05-4.21,0l-25.34,22c-1.01,0.88-1.37,2.29-0.9,3.55c0.47,1.25,1.67,2.09,3.01,2.09h4.86v19.76
			c0,1.02,0.83,1.85,1.85,1.85h10.92V60.65c0-2.03,1.65-3.68,3.68-3.68h8.08c2.03,0,3.68,1.65,3.68,3.68v14.37H68.63z"/>
	</g>
</g>
<circle class="st1" cx="50" cy="50" r="49"/>
</svg>
