<?xml version="1.0" encoding="utf-8"?>
<!-- Generator: Adobe Illustrator 23.0.3, SVG Export Plug-In . SVG Version: 6.00 Build 0)  -->
<svg version="1.1" id="Capa_1" xmlns="http://www.w3.org/2000/svg" xmlns:xlink="http://www.w3.org/1999/xlink" x="0px" y="0px"
	 viewBox="0 0 512 512" style="enable-background:new 0 0 512 512;" xml:space="preserve">
<style type="text/css">
	.st0{fill:#F26E5F;}
	.st1{fill:none;stroke:#F26E5F;stroke-width:5;stroke-miterlimit:10;}
</style>
<g>
	<path class="st0" d="M406.7,170.3c-19.6,0-37.7-6.5-52.3-17.5c-16.7-12.6-28.7-31-32.9-52.3c-1-5.3-1.6-10.7-1.7-16.2h-56.1v153.2
		l-0.1,83.9c0,22.4-14.6,41.5-34.9,48.1c-5.9,1.9-12.2,2.9-18.8,2.5c-8.4-0.5-16.3-3-23.2-7.1c-14.6-8.7-24.5-24.6-24.8-42.8
		c-0.4-28.4,22.5-51.5,50.8-51.5c5.6,0,11,0.9,16,2.6v-41.9v-15.1c-5.3-0.8-10.7-1.2-16.2-1.2c-31,0-60,12.9-80.8,36.1
		c-15.7,17.6-25.1,40-26.5,63.4c-1.9,30.9,9.4,60.2,31.3,81.8c3.2,3.2,6.6,6.1,10.1,8.8c18.8,14.4,41.7,22.3,65.9,22.3
		c5.5,0,10.9-0.4,16.2-1.2c22.6-3.3,43.4-13.7,59.9-29.9c20.2-20,31.4-46.5,31.5-74.7l-0.3-125.3c9.6,7.4,20.2,13.6,31.5,18.4
		c17.6,7.4,36.2,11.2,55.4,11.2v-40.7v-15.1C406.8,170.3,406.7,170.3,406.7,170.3L406.7,170.3z"/>
</g>
<circle class="st1" cx="256" cy="256" r="253.5"/>
</svg>
