<?xml version="1.0" encoding="utf-8"?>
<!-- Generator: Adobe Illustrator 23.0.3, SVG Export Plug-In . SVG Version: 6.00 Build 0)  -->
<svg version="1.1" id="Layer_1" xmlns="http://www.w3.org/2000/svg" xmlns:xlink="http://www.w3.org/1999/xlink" x="0px" y="0px"
	 viewBox="0 0 100 100" style="enable-background:new 0 0 100 100;" xml:space="preserve">
<style type="text/css">
	.st0{fill:none;stroke:#AFDCCB;stroke-miterlimit:10;}
	.st1{fill:#AFDCCB;}
</style>
<g id="XMLID_1723_">
	<path id="XMLID_1725_" class="st0" d="M50,99.5L50,99.5C22.66,99.5,0.5,77.34,0.5,50v0C0.5,22.66,22.66,0.5,50,0.5l0,0
		c27.34,0,49.5,22.16,49.5,49.5v0C99.5,77.34,77.34,99.5,50,99.5z"/>
	<path id="XMLID_1724_" class="st1" d="M23.63,66.57c4.79,3.07,10.48,4.86,16.59,4.86c20.09,0,31.44-16.97,30.76-32.19
		c2.11-1.52,3.95-3.43,5.4-5.6c-1.94,0.86-4.03,1.44-6.21,1.7c2.23-1.34,3.95-3.46,4.76-5.99c-2.09,1.24-4.41,2.14-6.87,2.63
		c-1.98-2.1-4.79-3.42-7.9-3.42c-6.98,0-12.12,6.52-10.54,13.29c-8.99-0.45-16.97-4.76-22.3-11.31c-2.84,4.87-1.47,11.23,3.35,14.45
		c-1.77-0.06-3.45-0.54-4.9-1.35c-0.12,5.01,3.48,9.7,8.68,10.75c-1.52,0.41-3.19,0.51-4.89,0.18c1.37,4.3,5.37,7.43,10.11,7.52
		C35.1,65.66,29.37,67.25,23.63,66.57z"/>
</g>
</svg>
