<?xml version="1.0" encoding="utf-8"?>
<!-- Generator: Adobe Illustrator 23.0.3, SVG Export Plug-In . SVG Version: 6.00 Build 0)  -->
<svg version="1.1" id="Layer_1" xmlns="http://www.w3.org/2000/svg" xmlns:xlink="http://www.w3.org/1999/xlink" x="0px" y="0px"
	 viewBox="0 0 100 100" style="enable-background:new 0 0 100 100;" xml:space="preserve">
<style type="text/css">
	.st0{fill:#FFCF5B;}
	.st1{fill:none;stroke:#FFCF5B;stroke-miterlimit:10;}
</style>
<g id="XMLID_1683_">
	<g id="XMLID_1684_">
		<path id="XMLID_1689_" class="st0" d="M50,27.86c7.21,0,8.06,0.03,10.91,0.16c2.63,0.12,4.06,0.56,5.01,0.93
			c1.26,0.49,2.16,1.07,3.1,2.02c0.95,0.95,1.53,1.84,2.02,3.1c0.37,0.95,0.81,2.38,0.93,5.01c0.13,2.85,0.16,3.7,0.16,10.91
			s-0.03,8.06-0.16,10.91c-0.12,2.63-0.56,4.06-0.93,5.01c-0.49,1.26-1.07,2.16-2.02,3.1c-0.94,0.94-1.84,1.53-3.1,2.02
			c-0.95,0.37-2.38,0.81-5.01,0.93c-2.85,0.13-3.7,0.16-10.91,0.16c-7.21,0-8.06-0.03-10.91-0.16c-2.63-0.12-4.06-0.56-5.01-0.93
			c-1.26-0.49-2.16-1.08-3.1-2.02c-0.94-0.94-1.53-1.84-2.02-3.1c-0.37-0.95-0.81-2.38-0.93-5.01c-0.13-2.85-0.16-3.7-0.16-10.91
			s0.03-8.06,0.16-10.91c0.12-2.63,0.56-4.06,0.93-5.01c0.49-1.26,1.08-2.16,2.02-3.1c0.94-0.94,1.84-1.53,3.1-2.02
			c0.95-0.37,2.38-0.81,5.01-0.93C41.94,27.89,42.79,27.86,50,27.86 M50,23c-7.33,0-8.25,0.03-11.13,0.16
			c-2.87,0.13-4.84,0.59-6.55,1.26c-1.78,0.69-3.28,1.61-4.78,3.11c-1.5,1.5-2.42,3.01-3.11,4.78c-0.67,1.72-1.12,3.68-1.25,6.55
			C23.03,41.75,23,42.67,23,50c0,7.33,0.03,8.25,0.16,11.13c0.13,2.87,0.59,4.84,1.25,6.55c0.69,1.78,1.61,3.28,3.11,4.78
			c1.5,1.5,3.01,2.42,4.78,3.11c1.72,0.67,3.68,1.12,6.55,1.25C41.75,76.97,42.67,77,50,77c7.33,0,8.25-0.03,11.13-0.16
			c2.87-0.13,4.84-0.59,6.55-1.25c1.78-0.69,3.28-1.61,4.78-3.11c1.5-1.5,2.42-3.01,3.11-4.78c0.67-1.72,1.12-3.68,1.26-6.55
			C76.97,58.25,77,57.33,77,50c0-7.33-0.03-8.25-0.16-11.13c-0.13-2.87-0.59-4.84-1.26-6.55c-0.69-1.78-1.61-3.28-3.11-4.78
			c-1.5-1.5-3.01-2.42-4.78-3.11c-1.72-0.67-3.68-1.12-6.55-1.26C58.25,23.03,57.33,23,50,23"/>
		<path id="XMLID_1686_" class="st0" d="M50,36.14c-7.66,0-13.86,6.21-13.86,13.86c0,7.66,6.21,13.86,13.86,13.86
			c7.66,0,13.86-6.21,13.86-13.86C63.86,42.34,57.66,36.14,50,36.14 M50,59c-4.97,0-9-4.03-9-9c0-4.97,4.03-9,9-9s9,4.03,9,9
			C59,54.97,54.97,59,50,59"/>
		<path id="XMLID_1685_" class="st0" d="M67.65,35.59c0,1.79-1.45,3.24-3.24,3.24c-1.79,0-3.24-1.45-3.24-3.24
			c0-1.79,1.45-3.24,3.24-3.24C66.2,32.35,67.65,33.8,67.65,35.59"/>
	</g>
</g>
<circle class="st1" cx="50" cy="50" r="49.5"/>
</svg>
