<?xml version="1.0" encoding="utf-8"?>
<!-- Generator: Adobe Illustrator 23.0.3, SVG Export Plug-In . SVG Version: 6.00 Build 0)  -->
<svg version="1.1" id="Layer_1" xmlns="http://www.w3.org/2000/svg" xmlns:xlink="http://www.w3.org/1999/xlink" x="0px" y="0px"
	 viewBox="0 0 1700 303" style="enable-background:new 0 0 1700 303;" xml:space="preserve">
<style type="text/css">
	.st0{fill:#F26E5F;}
	.st1{fill:#AFDCCB;}
	.st2{fill:#FFCF5B;}
</style>
<g transform="translate(0.000000,303.000000) scale(0.100000,-0.100000)">
	<path class="st0" d="M115,3015c-141-50-151-244-15-312c42-22,56-23,258-23c240,0,262-5,310-68l27-35l6-531l5-531l27-100
		c89-333,335-585,661-679c108-32,130-32,186-4c77,39,114,121,90,201c-16,55-66,103-121,116c-239,61-390,191-471,408
		c-22,57-23,70-25,578l-3,520l23,40c12,22,40,50,62,63c39,22,46,23,230,19c148-3,215-9,301-27c119-25,142-23,194,12
		c105,71,97,239-14,292c-52,25-209,55-343,66c-65,5-395,10-733,9C266,3029,148,3027,115,3015z"/>
	<path class="st1" d="M2225,2706c-60-27-105-94-105-156c0-60,29-108,99-162c260-204,446-515,508-848c15-80,17-158,18-500
		c0-299-3-416-13-447c-30-99-127-196-228-228c-46-14-111-16-591-13l-538,4l-97,26c-246,67-387,148-563,323c-171,171-261,325-322,552
		c-26,97-27,104-32,523c-6,405-7,427-27,460c-71,122-247,114-305-14c-17-37-19-72-19-389c0-191,5-391,10-445c31-279,134-543,301-765
		C563,304,908,95,1309,26c81-14,197-16,802-16c689,0,710,1,763,20c73,28,147,99,183,175l28,60l3,560c3,580-1,676-39,850
		c-49,230-152,457-298,655c-100,136-299,328-388,374C2325,2723,2266,2724,2225,2706z"/>
	<path class="st2" d="M1376,2320c-96-29-144-155-93-244c39-68,95-95,201-96c118,0,257-61,346-150c57-56,80-105,80-167
		c0-51-48-132-101-169c-61-44-76-83-52-133c15-30,28-39,80-57c90-30,137-65,164-121c21-43,24-66,29-215c4-148,7-170,26-194
		c36-49,70-67,131-71c76-5,129,23,161,87c21,42,22,56,22,250c0,237-6,257-90,346c-44,47-50,58-50,96c1,24,9,68,20,98
		c35,100,21,247-36,367c-52,110-197,236-340,296C1712,2311,1471,2348,1376,2320z"/>
	<path class="st2" d="M4211,2224c-36-30-49-81-31-125c23-55,49-63,207-69c140-5,143-6,170-33l28-27l5-550l5-550l32-31
		c25-26,40-32,76-33c24-1,56,6,71,14c57,30,56,23,56,595c0,567,0,567,53,597c14,8,76,15,165,18l144,5l29,33c44,50,38,122-15,164
		c-19,16-61,18-493,18h-471L4211,2224z"/>
	<path class="st2" d="M8544,2216l-34-34v-648c0-626,1-650,20-681c37-62,143-65,190-6c18,23,20,41,21,152c0,70,5,141,12,161
		c17,49,67,80,129,80c90,0,102-11,228-218c100-162,120-190,154-206c36-17,43-18,79-5c51,18,80,56,80,107c0,31-15,64-72,157
		c-98,163-98,171,13,278c68,66,92,97,120,157c96,202,63,440-81,591c-67,70-119,104-204,130c-53,17-95,19-341,19h-280L8544,2216z
		 M9114,2028c27-8,61-32,98-69c45-45,60-68,73-114c48-164-33-337-179-380c-65-20-245-20-291-1c-63,27-70,49-74,244
		c-4,221,1,256,44,299l33,33h127C9016,2040,9091,2035,9114,2028z"/>
	<path class="st2" d="M6471,2216c-51-28-50-15-51-703V870l29-32c26-29,35-33,81-33s55,4,81,33c23,26,29,42,29,78
		c0,79,38,123,106,124c50,0,56-4,149-120c85-105,104-119,155-120c76,0,134,71,110,135c-6,15-62,89-125,165s-119,150-125,164
		c-16,44-1,75,84,169c148,164,156,175,156,219c0,57-42,98-101,98c-46,0-55-8-194-162c-35-39-71-70-88-74c-38-9-86,13-108,50
		c-17,28-19,55-19,309c0,303-4,328-56,347C6549,2234,6500,2232,6471,2216z"/>
	<path class="st2" d="M13784,2196l-34-34v-644c0-706-3-670,60-703c37-19,63-19,100,0c53,27,55,39,60,335l5,275l29,53
		c43,76,98,107,191,107c182,0,214-78,215-512V872l26-31c50-59,150-46,179,23c21,50,21,561,0,660c-26,121-89,198-190,233
		c-66,23-220,23-292,1c-67-21-128-5-149,40c-5,9-11,97-14,195l-5,179l-33,29C13885,2244,13830,2242,13784,2196z"/>
	<path class="st2" d="M5595,1769c-236-39-395-236-395-489c1-244,135-427,355-485c119-31,299-14,399,37c65,33,160,132,194,201
		c41,83,51,133,52,248c0,155-42,262-141,361C5949,1753,5777,1800,5595,1769z M5796,1565c108-32,174-128,182-264c7-115-15-179-82-246
		c-61-61-98-75-201-75c-119,0-199,52-249,160c-32,70-29,207,5,280C5514,1554,5646,1610,5796,1565z"/>
	<path class="st2" d="M7715,1773c-133-18-263-100-334-211c-76-120-98-304-53-448c66-216,236-334,477-334c158,0,271,43,365,139
		c189,194,185,539-9,724C8048,1751,7891,1796,7715,1773z M7936,1552c43-22,94-74,118-120c37-71,40-210,8-292c-21-54-71-108-123-134
		c-44-22-66-26-133-26c-131,1-214,55-257,169c-29,79-24,214,11,285c30,60,90,112,150,131C7773,1585,7883,1579,7936,1552z"/>
	<path class="st2" d="M11265,1774c-76-19-148-64-181-113l-24-36v29c0,42-58,96-104,96c-19,0-47-5-61-12c-54-24-55-33-55-465
		c0-437-1-426,60-458c37-19,63-19,100,0c52,27,55,39,61,335c4,196,10,286,20,314c53,151,274,168,338,26c13-28,17-90,21-333l5-299
		l28-24c51-44,103-44,154,0l28,24l6,284c4,199,10,295,20,322c43,124,209,167,301,79c51-48,58-98,58-390c0-216,3-269,15-293
		c17-33,61-60,97-60c30,0,84,33,98,60c8,15,10,119,8,348c-3,305-5,330-24,378c-33,81-69,120-142,156c-60,30-74,33-161,33
		c-104,0-158-17-229-71c-47-37-91-35-146,4c-25,18-64,39-88,48C11424,1771,11299,1783,11265,1774z"/>
	<path class="st2" d="M12824,1765c-168-36-292-160-339-336c-18-64-19-217-4-291c48-230,226-367,463-356c109,5,192,38,252,99l38,39
		l11-37c12-43,62-83,104-83c36,0,90,35,101,66c6,15,10,188,10,421v395l-34,34c-28,28-42,34-76,34s-48-6-76-34c-19-19-34-44-34-56
		c0-21-4-19-44,18C13097,1769,12975,1798,12824,1765z M13055,1569c71-20,121-63,157-136c30-61,33-76,33-158c0-78-4-97-28-147
		c-32-66-90-120-146-136c-47-15-153-15-202-2c-50,14-115,73-147,134c-23,45-26,62-27,151c0,118,18,169,85,234
		C12845,1572,12956,1596,13055,1569z"/>
	<path class="st2" d="M15205,1770c-244-50-395-274-371-550c13-142,62-246,155-333c86-79,154-102,301-102c103,0,121,3,171,27
		c31,14,75,43,98,63l41,37l11-28c26-71,89-99,152-69c66,31,67,38,67,459c0,404-2,426-51,460c-13,9-43,16-67,16c-35,0-49-6-73-29
		c-16-16-29-39-29-50c0-30-16-34-33-7c-23,35-105,83-172,101C15342,1781,15270,1783,15205,1770z M15467,1551c53-26,108-91,127-149
		c18-52,21-179,6-234c-18-63-72-130-130-160c-45-24-64-28-134-28c-121,1-197,44-246,140c-38,75-43,210-11,294c26,67,88,126,158,152
		C15291,1586,15415,1578,15467,1551z"/>
	<path class="st2" d="M16553,1769c-68-13-125-43-169-88l-42-43l-12,36c-6,20-23,45-37,56c-32,25-99,27-132,4c-49-34-51-56-51-460
		c0-421,1-428,67-459c46-22,92-13,129,26l29,30l5,282c5,268,6,284,27,324c29,54,77,90,140,104c105,24,190-11,233-96
		c24-49,25-56,30-330c4-240,7-285,22-306c38-59,127-62,173-7l26,31l-3,336c-3,366-3,364-65,454C16860,1753,16702,1799,16553,1769z"
		/>
	<path class="st2" d="M9718,1721l-33-29l-3-284c-4-376,10-449,105-540c67-65,121-83,248-83c101,0,115,2,168,28c33,17,71,46,89,68
		l32,40l11-38c7-25,22-45,44-60c39-27,71-29,111-8c61,32,60,21,60,457c0,286-3,404-12,423c-27,60-117,73-170,26l-33-29l-5-284
		c-5-265-6-285-27-323c-44-83-102-115-205-115c-112,0-168,51-187,170c-6,36-11,174-11,308v244l-29,29C9829,1762,9764,1762,9718,1721
		z"/>
</g>
</svg>
