<?xml version="1.0" encoding="utf-8"?>
<!-- Generator: Adobe Illustrator 23.0.3, SVG Export Plug-In . SVG Version: 6.00 Build 0)  -->
<svg version="1.1" id="Layer_1" xmlns="http://www.w3.org/2000/svg" xmlns:xlink="http://www.w3.org/1999/xlink" x="0px" y="0px"
	 viewBox="0 0 100 100" style="enable-background:new 0 0 100 100;" xml:space="preserve">
<style type="text/css">
	.st0{fill:none;stroke:#FFCF5B;stroke-width:2;stroke-miterlimit:10;}
	.st1{fill:#FFCF5B;}
</style>
<circle class="st0" cx="50" cy="50" r="49"/>
<path class="st1" d="M21.5,35.8c0-3.9,3.2-7.1,7.1-7.1h42.8c3.9,0,7.1,3.2,7.1,7.1v28.5c0,3.9-3.2,7.1-7.1,7.1H28.6
	c-3.9,0-7.1-3.2-7.1-7.1V35.8z M28.6,32.2c-2,0-3.6,1.6-3.6,3.6v0.8l24.9,15l24.9-15v-0.8c0-2-1.6-3.6-3.6-3.6H28.6z M74.9,40.7
	L58,50.8l17,10.2V40.7L74.9,40.7z M74.8,65.2L54.5,52.9L50,55.6l-4.5-2.7L25.2,65.2c0.4,1.6,1.8,2.6,3.4,2.6h42.8
	C73,67.8,74.4,66.7,74.8,65.2z M25.1,61.1l17-10.2l-17-10.2V61.1L25.1,61.1z"/>
</svg>
