<?xml version="1.0" encoding="utf-8"?>
<!-- Generator: Adobe Illustrator 23.0.3, SVG Export Plug-In . SVG Version: 6.00 Build 0)  -->
<svg version="1.1" id="Layer_1" xmlns="http://www.w3.org/2000/svg" xmlns:xlink="http://www.w3.org/1999/xlink" x="0px" y="0px"
	 viewBox="0 0 200 200" style="enable-background:new 0 0 200 200;" xml:space="preserve">
<style type="text/css">
	.st0{fill:#FFFFFF;filter:url(#Adobe_OpacityMaskFilter);}
	.st1{mask:url(#mask0_1_);}
	.st2{fill:#D4E8DD;}
	.st3{fill-rule:evenodd;clip-rule:evenodd;fill:#F26E6F;}
	.st4{fill-rule:evenodd;clip-rule:evenodd;fill:#FFCF6B;}
	.st5{fill:#253863;}
	.st6{fill-rule:evenodd;clip-rule:evenodd;fill:#253863;}
</style>
<defs>
	<filter id="Adobe_OpacityMaskFilter" filterUnits="userSpaceOnUse" x="0" y="7.1" width="200" height="185.7">
		<feColorMatrix  type="matrix" values="1 0 0 0 0  0 1 0 0 0  0 0 1 0 0  0 0 0 1 0"/>
	</filter>
</defs>
<mask maskUnits="userSpaceOnUse" x="0" y="7.1" width="200" height="185.7" id="mask0_1_">
	<rect x="-20.8" y="-20.2" class="st0" width="238.1" height="238.1"/>
</mask>
<g class="st1">
	<rect x="15.5" y="57.1" class="st2" width="169.6" height="130.4"/>
	<path class="st3" d="M70.8,10.1L50,72.6c0,0,3.6,14.3,25,14.3c23.8,0,25.6-14.3,25.6-14.3V10.1H70.8L70.8,10.1z"/>
	<path class="st3" d="M130.4,10.1l20.8,63.7c0,0,3,14.3,23.2,14.3c22.6,0,22-14.9,22-14.9l-26.8-62.5L130.4,10.1z"/>
	<path class="st4" d="M101.2,10.1v62.5c0,0-1.2,16.7,26.2,16.1c25.6-0.6,24.4-14.9,24.4-14.9l-20.8-63.7H101.2z"/>
	<path class="st4" d="M70.8,10.1L31,9.5L4.8,72.6c0,0-1.2,14.9,22.6,14.9c20.8,0,23.2-14.9,23.2-14.9L70.8,10.1z"/>
	<rect x="100" y="131.5" class="st5" width="29.8" height="35.1"/>
	<rect x="144" y="131.5" class="st5" width="29.8" height="35.1"/>
	<rect y="186.9" class="st5" width="200" height="6"/>
	<path class="st6" d="M84.5,187.5H33.9v-67.3c0,0,1.2-19.6,25.6-19.6s25,19.6,25,19.6V187.5z"/>
	<rect x="30.9" y="7.1" class="st5" width="139.3" height="3.6"/>
</g>
</svg>
